<svg width="57" height="56" viewBox="0 0 57 56" fill="none" xmlns="http://www.w3.org/2000/svg">
<path d="M56.5 28C56.5 43.464 43.964 56 28.5 56C13.036 56 0.5 43.464 0.5 28C0.5 12.536 13.036 0 28.5 0C43.964 0 56.5 12.536 56.5 28ZM8.79093 28C8.79093 38.885 17.615 47.7091 28.5 47.7091C39.385 47.7091 48.2091 38.885 48.2091 28C48.2091 17.115 39.385 8.29093 28.5 8.29093C17.615 8.29093 8.79093 17.115 8.79093 28Z" fill="#0A66C2"/>
<g clip-path="url(#clip0_107:751)">
<path d="M42.5809 42.0818H36.6542V32.8001C36.6542 30.5868 36.6147 27.7376 33.5717 27.7376C30.4848 27.7376 30.0125 30.1491 30.0125 32.639V42.0812H24.0859V22.9943H29.7754V25.6027H29.8551C30.4245 24.6292 31.2473 23.8282 32.2359 23.2853C33.2244 22.7423 34.3418 22.4776 35.4689 22.5195C41.4759 22.5195 42.5834 26.4707 42.5834 31.611L42.5809 42.0818ZM17.3984 20.3854C15.4989 20.3857 13.9587 18.846 13.9584 16.9465C13.9581 15.047 15.4976 13.5068 17.3971 13.5065C19.2967 13.506 20.8368 15.0457 20.8371 16.9452C20.8373 17.8574 20.4751 18.7323 19.8302 19.3775C19.1853 20.0226 18.3106 20.3852 17.3984 20.3854ZM20.3618 42.082H14.4289V22.9943H20.3617V42.0818L20.3618 42.082ZM45.5356 8.00227H11.4507C9.8398 7.98415 8.51871 9.27461 8.49902 10.8856V45.1126C8.51809 46.7243 9.83902 48.016 11.4506 47.9991H45.5356C47.1506 48.0191 48.4767 46.7274 48.499 45.1126V10.8829C48.4761 9.26883 47.1498 7.97852 45.5356 7.99961" fill="#0A66C2"/>
</g>
<defs>
<clipPath id="clip0_107:751">
<rect width="40" height="40" fill="white" transform="translate(8.5 8)"/>
</clipPath>
</defs>
</svg>
