<svg width="281" height="280" viewBox="0 0 281 280" fill="none" xmlns="http://www.w3.org/2000/svg">
<path d="M176.675 15.2242C171.965 10.4036 166.338 6.57322 160.126 3.95807C153.914 1.34291 147.242 -0.00425339 140.503 -0.00425339C133.763 -0.00425339 127.091 1.34291 120.879 3.95807C114.667 6.57322 109.04 10.4036 104.33 15.2242L93.445 26.3892L77.87 26.1967C71.1281 26.1169 64.4384 27.3859 58.1941 29.9292C51.9498 32.4725 46.2771 36.2386 41.5095 41.0062C36.742 45.7738 32.9758 51.4465 30.4326 57.6907C27.8893 63.935 26.6202 70.6248 26.7 77.3667L26.875 92.9417L15.745 103.827C10.9245 108.537 7.09408 114.164 4.47892 120.375C1.86376 126.587 0.516602 133.259 0.516602 139.999C0.516602 146.739 1.86376 153.411 4.47892 159.623C7.09408 165.835 10.9245 171.461 15.745 176.172L26.8925 187.057L26.7 202.632C26.6202 209.374 27.8893 216.063 30.4326 222.308C32.9758 228.552 36.742 234.225 41.5095 238.992C46.2771 243.76 51.9498 247.526 58.1941 250.069C64.4384 252.612 71.1281 253.881 77.87 253.802L93.445 253.627L104.33 264.757C109.04 269.577 114.667 273.408 120.879 276.023C127.091 278.638 133.763 279.985 140.503 279.985C147.242 279.985 153.914 278.638 160.126 276.023C166.338 273.408 171.965 269.577 176.675 264.757L187.56 253.609L203.135 253.802C209.877 253.881 216.567 252.612 222.811 250.069C229.055 247.526 234.728 243.76 239.495 238.992C244.263 234.225 248.029 228.552 250.572 222.308C253.116 216.063 254.385 209.374 254.305 202.632L254.13 187.057L265.26 176.172C270.081 171.461 273.911 165.835 276.526 159.623C279.141 153.411 280.488 146.739 280.488 139.999C280.488 133.259 279.141 126.587 276.526 120.375C273.911 114.164 270.081 108.537 265.26 103.827L254.112 92.9417L254.305 77.3667C254.385 70.6248 253.116 63.935 250.572 57.6907C248.029 51.4465 244.263 45.7738 239.495 41.0062C234.728 36.2386 229.055 32.4725 222.811 29.9292C216.567 27.3859 209.877 26.1169 203.135 26.1967L187.56 26.3717L176.675 15.2417V15.2242ZM181.697 119.944L129.198 172.444C128.385 173.259 127.419 173.906 126.356 174.347C125.293 174.788 124.153 175.015 123.003 175.015C121.852 175.015 120.712 174.788 119.649 174.347C118.586 173.906 117.62 173.259 116.808 172.444L90.5575 146.194C89.744 145.381 89.0986 144.415 88.6583 143.352C88.2181 142.289 87.9914 141.15 87.9914 139.999C87.9914 138.849 88.2181 137.709 88.6583 136.646C89.0986 135.584 89.744 134.618 90.5575 133.804C91.371 132.991 92.3369 132.345 93.3998 131.905C94.4627 131.465 95.602 131.238 96.7525 131.238C97.903 131.238 99.0423 131.465 100.105 131.905C101.168 132.345 102.134 132.991 102.948 133.804L123.003 153.877L169.307 107.554C170.951 105.911 173.179 104.988 175.503 104.988C177.826 104.988 180.054 105.911 181.697 107.554C183.341 109.197 184.264 111.426 184.264 113.749C184.264 116.073 183.341 118.301 181.697 119.944Z" fill="#1DD7A8"/>
</svg>
