<svg width="57" height="56" viewBox="0 0 57 56" fill="none" xmlns="http://www.w3.org/2000/svg">
<circle cx="28.5" cy="28" r="28" fill="#AD08D7"/>
<path fill-rule="evenodd" clip-rule="evenodd" d="M20.942 9.77666C22.897 9.68666 23.5203 9.66666 28.5003 9.66666C33.4803 9.66666 34.1037 9.68832 36.057 9.77666C38.0103 9.86499 39.3437 10.1767 40.5103 10.6283C41.732 11.09 42.8403 11.8117 43.757 12.745C44.6903 13.66 45.4103 14.7667 45.8703 15.99C46.3237 17.1567 46.6337 18.49 46.7237 20.44C46.8137 22.3983 46.8337 23.0217 46.8337 28C46.8337 32.98 46.812 33.6033 46.7237 35.5583C46.6353 37.5083 46.3237 38.8417 45.8703 40.0083C45.4103 41.2318 44.6891 42.3403 43.757 43.2567C42.8403 44.19 41.732 44.91 40.5103 45.37C39.3437 45.8233 38.0103 46.1333 36.0603 46.2233C34.1037 46.3133 33.4803 46.3333 28.5003 46.3333C23.5203 46.3333 22.897 46.3117 20.942 46.2233C18.992 46.135 17.6587 45.8233 16.492 45.37C15.2685 44.9099 14.16 44.1887 13.2437 43.2567C12.311 42.3411 11.5892 41.2331 11.1287 40.01C10.677 38.8433 10.367 37.51 10.277 35.56C10.187 33.6017 10.167 32.9783 10.167 28C10.167 23.02 10.1887 22.3967 10.277 20.4433C10.3653 18.49 10.677 17.1567 11.1287 15.99C11.5899 14.7668 12.3122 13.6588 13.2453 12.7433C14.1604 11.8108 15.2678 11.0891 16.4903 10.6283C17.657 10.1767 18.9903 9.86666 20.9403 9.77666H20.942ZM35.9087 13.0767C33.9753 12.9883 33.3953 12.97 28.5003 12.97C23.6053 12.97 23.0253 12.9883 21.092 13.0767C19.3037 13.1583 18.3337 13.4567 17.687 13.7083C16.832 14.0417 16.2203 14.4367 15.5787 15.0783C14.9704 15.6701 14.5023 16.3905 14.2087 17.1867C13.957 17.8333 13.6587 18.8033 13.577 20.5917C13.4887 22.525 13.4703 23.105 13.4703 28C13.4703 32.895 13.4887 33.475 13.577 35.4083C13.6587 37.1967 13.957 38.1667 14.2087 38.8133C14.502 39.6083 14.9703 40.33 15.5787 40.9217C16.1703 41.53 16.892 41.9983 17.687 42.2917C18.3337 42.5433 19.3037 42.8417 21.092 42.9233C23.0253 43.0117 23.6037 43.03 28.5003 43.03C33.397 43.03 33.9753 43.0117 35.9087 42.9233C37.697 42.8417 38.667 42.5433 39.3137 42.2917C40.1687 41.9583 40.7803 41.5633 41.422 40.9217C42.0303 40.33 42.4987 39.6083 42.792 38.8133C43.0437 38.1667 43.342 37.1967 43.4237 35.4083C43.512 33.475 43.5303 32.895 43.5303 28C43.5303 23.105 43.512 22.525 43.4237 20.5917C43.342 18.8033 43.0437 17.8333 42.792 17.1867C42.4587 16.3317 42.0637 15.72 41.422 15.0783C40.8302 14.4701 40.1098 14.002 39.3137 13.7083C38.667 13.4567 37.697 13.1583 35.9087 13.0767ZM26.1587 33.6517C27.4664 34.196 28.9226 34.2695 30.2785 33.8595C31.6345 33.4495 32.806 32.5815 33.593 31.4037C34.38 30.2259 34.7337 28.8114 34.5937 27.4018C34.4537 25.9922 33.8287 24.6749 32.8253 23.675C32.1857 23.0358 31.4123 22.5463 30.5609 22.2419C29.7094 21.9375 28.801 21.8256 27.9011 21.9143C27.0013 22.0031 26.1322 22.2903 25.3567 22.7552C24.5811 23.2201 23.9182 23.8512 23.4158 24.6031C22.9134 25.3549 22.584 26.2088 22.4512 27.1033C22.3184 27.9977 22.3856 28.9105 22.6479 29.7758C22.9102 30.6412 23.3611 31.4377 23.9682 32.1079C24.5753 32.778 25.3234 33.3053 26.1587 33.6517ZM21.837 21.3367C22.712 20.4616 23.7509 19.7675 24.8942 19.2939C26.0375 18.8204 27.2628 18.5766 28.5003 18.5766C29.7378 18.5766 30.9632 18.8204 32.1065 19.2939C33.2498 19.7675 34.2886 20.4616 35.1637 21.3367C36.0387 22.2117 36.7328 23.2505 37.2064 24.3938C37.68 25.5371 37.9237 26.7625 37.9237 28C37.9237 29.2375 37.68 30.4629 37.2064 31.6062C36.7328 32.7495 36.0387 33.7883 35.1637 34.6633C33.3964 36.4305 30.9996 37.4234 28.5003 37.4234C26.0011 37.4234 23.6042 36.4305 21.837 34.6633C20.0698 32.8961 19.0769 30.4992 19.0769 28C19.0769 25.5008 20.0698 23.1039 21.837 21.3367ZM40.0137 19.98C40.2305 19.7754 40.4041 19.5295 40.5242 19.2566C40.6442 18.9838 40.7083 18.6896 40.7127 18.3915C40.717 18.0935 40.6615 17.7976 40.5495 17.5213C40.4374 17.2451 40.271 16.9942 40.0603 16.7834C39.8495 16.5726 39.5985 16.4063 39.3223 16.2942C39.0461 16.1821 38.7502 16.1266 38.4521 16.131C38.154 16.1353 37.8599 16.1994 37.587 16.3195C37.3142 16.4396 37.0682 16.6131 36.8637 16.83C36.4658 17.2517 36.248 17.8119 36.2565 18.3915C36.2649 18.9712 36.499 19.5248 36.9089 19.9347C37.3189 20.3447 37.8724 20.5787 38.4521 20.5872C39.0318 20.5956 39.5919 20.3778 40.0137 19.98Z" fill="white"/>
</svg>
